<svg width="200" height="200" viewBox="0 0 200 200" fill="none" xmlns="http://www.w3.org/2000/svg">
<rect x="1.5" y="1.5" width="197" height="197" rx="18.5" fill="#01EB00" stroke="#01EB00" stroke-width="3"/>
<path d="M97.0006 82.2886L58.4643 29.1006L58.4571 29.0906L58.4497 29.0807C55.1167 24.6367 51.061 22.2241 46.3007 22.2241C42.607 22.2241 39.0812 23.6591 35.7486 26.3569L35.7486 26.3569C32.2688 29.1739 30.5 32.8794 30.5 37.3545C30.5 39.0415 30.8368 40.8427 31.4708 42.7447L32.8805 42.2748L31.4708 42.7447C32.1319 44.7282 33.2677 46.735 34.8283 48.7648C34.8299 48.7669 34.8315 48.769 34.8331 48.7711L80.9993 110.112V167.178C80.9993 171.413 82.3978 175.065 85.2074 178.04L85.2368 178.071L85.268 178.1C88.2308 180.898 91.8032 182.308 95.9062 182.308C99.7499 182.308 103.105 180.87 105.905 178.07C108.874 175.101 110.366 171.439 110.366 167.178V114.02L135.357 83.0987L135.4 83.0452L135.438 82.9879C136.406 81.5364 137.082 80.0442 137.43 78.5133C137.902 76.9238 138.148 75.38 138.148 73.8883C138.148 69.4824 136.582 65.7983 133.434 62.9666C130.511 60.0559 127.097 58.5345 123.241 58.5345C118.323 58.5345 114.199 61.1054 110.879 65.8219L97.0006 82.2886Z" fill="#181818" stroke="#181818" stroke-width="3"/>
<circle cx="147.448" cy="39.5517" r="18.0517" fill="#181818" stroke="#181818" stroke-width="3"/>
</svg>
